<svg xmlns="http://www.w3.org/2000/svg" width="96" height="32" fill="none">
<path fill="#000" d="M35.767 31.329c0 .37.3.671.671.671h4.305c.37 0 .671-.3.671-.671V.67c0-.37-.3-.671-.671-.671h-4.305c-.37 0-.67.3-.67.671zM90.352 31.329c0 .37.3.671.671.671h4.305c.37 0 .671-.3.671-.671V.67c0-.37-.3-.671-.67-.671h-4.305c-.371 0-.672.3-.672.671zM73.256 0a.67.67 0 0 0-.652.512l-6.366 26.1c-.106.428-.607.428-.71 0L59.159.512A.67.67 0 0 0 58.511 0H47.725c-.37 0-.668.3-.668.671V31.33c0 .37.3.671.671.671h4.78c.37 0 .671-.292.671-.662V5.554c0-.515.605-.622.727-.127l6.358 26.06c.073.302.342.513.652.513h9.932c.31 0 .578-.212.652-.512L77.855 5.43c.122-.495.726-.388.726.127v25.772c0 .37.3.671.672.671h4.78c.37 0 .67-.3.67-.671V.67c0-.37-.3-.671-.67-.671zM15.279 14.837 28.264 1.133A.671.671 0 0 0 27.777 0h-6.043c-.18 0-.351.072-.477.199L6.374 15.223c-.231.234-.573.025-.573-.35V.672c0-.37-.3-.671-.671-.671H.67C.301 0 0 .3 0 .671V31.33c0 .37.3.671.671.671H5.13c.37 0 .671-.3.671-.671v-6.114c0-.135.048-.265.13-.35l4.594-4.69a.293.293 0 0 1 .386-.045l12.286 9.305c1.796 1.245 4.083 2.06 6.178 2.401a.645.645 0 0 0 .743-.648v-5.537a.7.7 0 0 0-.562-.677c-1.215-.262-2.565-.758-3.59-1.468L15.332 15.58c-.22-.152-.248-.544-.052-.744" style="fill:#000;fill-opacity:1"></path>
</svg>