<?xml version="1.0" standalone="no"?><!DOCTYPE svg PUBLIC "-//W3C//DTD SVG 1.1//EN" "http://www.w3.org/Graphics/SVG/1.1/DTD/svg11.dtd"><svg t="1761022162005" class="icon" viewBox="0 0 1024 1024" version="1.1" xmlns="http://www.w3.org/2000/svg" p-id="2788" xmlns:xlink="http://www.w3.org/1999/xlink" width="128" height="128"><path d="M643.7888 573.1328v-336.896c0-33.8944-27.5456-61.44-61.44-61.44H180.5312c-33.8944 0-61.44 27.5456-61.44 61.44v336.9984c0 33.8944 27.5456 61.44 61.44 61.44H230.4v54.8864c0 11.5712 6.4512 22.1184 16.7936 27.3408 4.4032 2.2528 9.216 3.3792 13.9264 3.3792 6.3488 0 12.6976-1.9456 18.0224-5.8368l109.9776-79.872h193.2288c33.8944 0 61.44-27.5456 61.44-61.44z" p-id="2789" data-spm-anchor-id="a313x.search_index.0.i9.7af13a81gfziBO" class="" fill="#dbdbdb"></path><path d="M843.4688 308.9408H678.912v313.7536c0 22.6304-18.3296 40.96-40.96 40.96H461.6192v40.6528c0 33.8944 27.5456 61.44 61.44 61.44h92.0576l109.568 77.824c5.3248 3.7888 11.5712 5.7344 17.8176 5.7344 5.3248 0 10.6496-1.3312 15.4624-4.1984 9.6256-5.5296 15.2576-16.0768 15.2576-27.136v-47.8208h70.2464c33.8944 0 61.44-27.5456 61.44-61.44V370.3808c0-33.8944-27.5456-61.44-61.44-61.44z" p-id="2790" data-spm-anchor-id="a313x.search_index.0.i11.7af13a81gfziBO" class="selected" fill="#4a90e2"></path></svg>