<?xml version="1.0" standalone="no"?><!DOCTYPE svg PUBLIC "-//W3C//DTD SVG 1.1//EN" "http://www.w3.org/Graphics/SVG/1.1/DTD/svg11.dtd"><svg t="1761020309488" class="icon" viewBox="0 0 1024 1024" version="1.1" xmlns="http://www.w3.org/2000/svg" p-id="2849" xmlns:xlink="http://www.w3.org/1999/xlink" width="128" height="128"><path d="M505 775.64c0 5.27-6.83 7.34-9.75 2.96C485.08 763.37 468.42 752 446 752H254.76c-42.39 0-76.76-34.37-76.76-76.76V320.75c0-42.39 34.37-76.76 76.76-76.76H439.5c36.18 0 65.51 29.33 65.51 65.51v466.13z" fill="#D8D8D8" p-id="2850"></path><path d="M535 775.64c0 5.27 6.83 7.34 9.75 2.96C554.92 763.37 571.58 752 594 752h191.24c42.39 0 76.76-34.37 76.76-76.76V320.75c0-42.39-34.37-76.76-76.76-76.76H600.5c-36.18 0-65.51 29.33-65.51 65.51v466.13z" fill="#515151" p-id="2851" data-spm-anchor-id="a313x.collections_detail.0.i15.4e3c3a810dcy6X" class="selected"></path><path d="M669.79 639.13m30.52 0l76.86 0q30.52 0 30.52 30.52l0-0.01q0 30.52-30.52 30.52l-76.86 0q-30.52 0-30.52-30.52l0 0.01q0-30.52 30.52-30.52Z" fill="#FFFFFF" p-id="2852"></path></svg>