<?xml version="1.0" standalone="no"?><!DOCTYPE svg PUBLIC "-//W3C//DTD SVG 1.1//EN" "http://www.w3.org/Graphics/SVG/1.1/DTD/svg11.dtd"><svg t="1761022449205" class="icon" viewBox="0 0 1024 1024" version="1.1" xmlns="http://www.w3.org/2000/svg" p-id="97114" data-spm-anchor-id="a313x.search_index.0.i113.60803a81oUeWig" xmlns:xlink="http://www.w3.org/1999/xlink" width="128" height="128"><path d="M512 949.10464c-12.68736 0-27.73504-3.73248-47.3344-11.74016l-321.0752-145.90976A70.43072 70.43072 0 0 1 102.4 727.48544v-431.36a70.41536 70.41536 0 0 1 41.17504-63.94368l319.40096-145.2032c36.56192-16.1792 61.91104-15.99488 97.67936-0.1536l319.75424 145.3568A70.4 70.4 0 0 1 921.6 296.12544v431.36a70.42048 70.42048 0 0 1-41.17504 63.95904l-319.72352 145.34144c-20.95104 8.58624-36.01408 12.31872-48.70144 12.31872z m0.24064-72.67328h0.2816-0.2816zM512 147.73248c-2.01728 0-7.94624 0.5376-19.31776 5.56544L173.64992 298.32704l1.41824 429.1584 318.3616 143.1552c13.25568 5.39136 18.54976 5.77536 18.7904 5.79072-0.21504-0.01536 5.07904-0.39936 19.70176-6.3744l318.41792-144.77312-1.41824-429.1584-317.99296-143.0016c-10.99264-4.85376-16.91136-5.39136-18.92864-5.39136z" fill="#dbdbdb" p-id="97115" data-spm-anchor-id="a313x.search_index.0.i110.60803a81oUeWig" class=""></path><path d="M511.47264 786.8416h-0.05632A29.06112 29.06112 0 0 1 482.4064 757.76v-0.04096l0.48128-240.35328-217.55904-109.15328a29.0816 29.0816 0 0 1-12.95872-39.01952 29.12256 29.12256 0 0 1 39.01952-12.95872L512 466.9184l220.61056-110.68416a29.0816 29.0816 0 0 1 26.0608 51.97824l-217.64608 109.17888-0.48128 240.44032a29.07136 29.07136 0 0 1-29.07136 29.00992z" fill="#515151" opacity=".5" p-id="97116" data-spm-anchor-id="a313x.search_index.0.i111.60803a81oUeWig" class="selected"></path></svg>