<?xml version="1.0" standalone="no"?><!DOCTYPE svg PUBLIC "-//W3C//DTD SVG 1.1//EN" "http://www.w3.org/Graphics/SVG/1.1/DTD/svg11.dtd"><svg t="1761021863972" class="icon" viewBox="0 0 1024 1024" version="1.1" xmlns="http://www.w3.org/2000/svg" p-id="84917" data-spm-anchor-id="a313x.search_index.0.i96.60803a81oUeWig" xmlns:xlink="http://www.w3.org/1999/xlink" width="128" height="128"><path d="M465.384727 107.752727a93.835636 93.835636 0 0 1 88.203637-2.583272l0.279272 0.139636 4.584728 2.466909 277.527272 158.976a91.229091 91.229091 0 0 1 45.963637 74.100364l0.093091 4.747636v337.384727a90.833455 90.833455 0 0 1-42.775273 76.916364l-4.282182 2.513454-277.504 154.414546a93.835636 93.835636 0 0 1-86.109091 2.466909l-4.864-2.466909-277.387636-154.368a91.182545 91.182545 0 0 1-47.010909-74.519273l-0.139637-4.933818V345.6c0-30.72 15.662545-59.275636 41.821091-76.241455l4.235637-2.606545 277.364363-158.976z m62.813091 51.316364a32.837818 32.837818 0 0 0-29.998545-1.303273l-0.302546 0.116364-2.234182 1.163636L218.298182 318.045091c-9.076364 5.12-15.057455 14.498909-15.941818 24.576l-0.139637 2.978909v337.408c0 10.589091 5.306182 20.433455 13.847273 26.158545l2.56 1.605819 277.527273 154.344727c8.96 5.026909 19.851636 5.469091 28.811636 1.466182l2.909091-1.466182 277.504-154.344727c9.239273-5.050182 15.383273-14.498909 16.314182-24.669091l0.139636-3.095273V345.623273a31.557818 31.557818 0 0 0-13.544727-25.925818l-2.56-1.629091-277.527273-158.999273z" fill="#515151" p-id="84918" data-spm-anchor-id="a313x.search_index.0.i97.60803a81oUeWig" class=""></path><path d="M671.045818 384.093091a29.137455 29.137455 0 0 1 36.677818 6.004364l0.116364 0.186181h0.768l2.676364 4.701091c3.863273 6.818909 4.887273 14.894545 2.909091 22.458182a29.626182 29.626182 0 0 1-13.637819 18.013091l-159.208727 93.323636v186.88a29.556364 29.556364 0 0 1-26.344727 29.486546l-3.002182 0.162909a29.509818 29.509818 0 0 1-29.346909-29.672727l-0.023273-186.740364-159.092363-93.253818a29.696 29.696 0 0 1-14.452364-22.528l-0.162909-3.141818c0-10.589091 5.538909-20.363636 14.615273-25.693091a29.090909 29.090909 0 0 1 29.463272 0l158.836364 93.160727 159.208727-93.346909z" fill="#4a90e2" p-id="84919" data-spm-anchor-id="a313x.search_index.0.i98.60803a81oUeWig" class=""></path></svg>