<?xml version="1.0" standalone="no"?><!DOCTYPE svg PUBLIC "-//W3C//DTD SVG 1.1//EN" "http://www.w3.org/Graphics/SVG/1.1/DTD/svg11.dtd"><svg t="1761021084105" class="icon" viewBox="0 0 1024 1024" version="1.1" xmlns="http://www.w3.org/2000/svg" p-id="3561" xmlns:xlink="http://www.w3.org/1999/xlink" width="128" height="128"><path d="M484.98 521.79L199.96 387.38c-22.31-10.52-22.31-42.25 0-52.77L484.98 200.2a82.087 82.087 0 0 1 70.04 0l285.02 134.41c22.31 10.52 22.31 42.25 0 52.77L555.02 521.79a82.087 82.087 0 0 1-70.04 0z" fill="#dbdbdb" p-id="3562" data-spm-anchor-id="a313x.collections_detail.0.i28.4e3c3a810dcy6X" class="selected"></path><path d="M840.04 493.11l-69.75-32.89a16.814 16.814 0 0 0-14.37 0l-188.11 88.71c-14.86 7.01-31.39 10.71-47.82 10.71s-32.96-3.7-47.82-10.71l-188.11-88.71a16.814 16.814 0 0 0-14.37 0l-69.75 32.89c-22.31 10.52-22.31 42.25 0 52.77l285.02 134.41a82.087 82.087 0 0 0 70.04 0l285.02-134.41c22.31-10.52 22.31-42.25 0-52.77z" fill="#515151" p-id="3563" data-spm-anchor-id="a313x.collections_detail.0.i26.4e3c3a810dcy6X" class=""></path><path d="M840.04 651.61l-69.75-32.89a16.814 16.814 0 0 0-14.37 0l-188.11 88.71c-14.86 7-31.39 10.71-47.82 10.71s-32.96-3.7-47.82-10.71l-188.11-88.71a16.814 16.814 0 0 0-14.37 0l-69.75 32.89c-22.31 10.52-22.31 42.25 0 52.77l285.02 134.41a82.087 82.087 0 0 0 70.04 0l285.02-134.41c22.31-10.52 22.31-42.25 0-52.77z" fill="#dbdbdb" p-id="3564" data-spm-anchor-id="a313x.collections_detail.0.i25.4e3c3a810dcy6X" class=""></path></svg>